<svg id="bcd4492c-208c-476b-b96f-9813f6b2df72" xmlns="http://www.w3.org/2000/svg" viewBox="0 0 437.23 135"><defs><style>.fc2dcdb5-2e76-425c-b56a-837394af4424{fill:#776e65;}.a9626e3b-0f4b-405e-ae7b-719189e430c4{fill:#f29a2e;}.f4c8e7a4-8ec3-427b-95d7-53d2a0d45c8b{fill:#e1eaf2;}.a647705b-2571-4a88-89a5-9d4a8b6cb5b1{fill:#f4bc58;}.effff137-184c-45c6-9555-1674a7cf0faa{fill:#d1dce6;}.a17000cd-b0e9-4b55-9d7f-38467851e194{fill:#3e4347;}.b0dfb537-9701-4fc9-b43b-e6216649b4a9{fill:#e24b4b;}</style></defs><title>Logo</title><path class="fc2dcdb5-2e76-425c-b56a-837394af4424" d="M208.27,24.59a109.22,109.22,0,0,1-6.85,14.76V88.89h-8.2V52.09a69.84,69.84,0,0,1-4.83,5.84A55.32,55.32,0,0,0,183.78,49c6.48-6.48,12.75-16.71,16.35-26.93Zm25.49,18V79.46c0,4.1-.72,6.48-3.32,7.92s-6,1.72-10.58,1.72a29.48,29.48,0,0,0-3-8.64c3,.08,6,.08,7.05.08s1.3-.29,1.3-1.23V42.59h-8.35a62,62,0,0,1-6.77,11A60,60,0,0,0,203.22,48c5.48-6.12,9.8-16.06,12.25-25.92l8.35,1.87a109.58,109.58,0,0,1-3.39,10.73H245.2l1.37-.29,6.05,1.15c-.86,5.83-2.09,12.53-3.1,16.71L242.25,51c.36-2.23.79-5.25,1.15-8.42Zm-12,13c-2.09,9.14-5.76,18.22-9.79,24A53.47,53.47,0,0,0,204.67,75c4.1-5,7.12-13.18,8.78-21.17ZM244,53.1a89.36,89.36,0,0,1,7.85,23.48l-8.21,2.8c-.79-6.4-3.82-16.27-7.27-23.69Z" transform="translate(-17.5 -4.82)"/><path class="fc2dcdb5-2e76-425c-b56a-837394af4424" d="M327.07,48.57c4.75,14.54,13.61,26.64,27.07,32.47a32.66,32.66,0,0,0-6.41,8c-13.25-6.55-21.53-18.07-27.07-33a55.24,55.24,0,0,1-7.27,15.63l2-1.37c4.32,3.82,10.08,9.29,12.6,13l-7.63,5.55c-2.09-3.32-6.7-8.28-10.73-12.32A53.32,53.32,0,0,1,292.22,89a30,30,0,0,0-6.41-7.27c17.71-7.63,24.62-20.16,27.29-33.19H288V39.71h26.35c.58-6.27.51-12.39.58-17.86h9.43c-.07,5.55-.14,11.59-.72,17.86H352.2v8.86Z" transform="translate(-17.5 -4.82)"/><path class="fc2dcdb5-2e76-425c-b56a-837394af4424" d="M429.23,71.68c5.12,5.54,13.47,8.5,25.5,9.43a29.06,29.06,0,0,0-5.12,8c-14.47-1.94-23.18-6.69-29-16C416.85,80.9,408.93,86,391.07,89a21.78,21.78,0,0,0-4.25-7.7c14-1.88,20.81-5,24.34-9.58H390.5V64h23.76c.21-1.16.43-2.45.57-3.75H388.34V52.81H416V49H394.67V41.8H416V38.12H391.36V30.56h12.89a40.94,40.94,0,0,0-4-6.33l7.63-3a32,32,0,0,1,5.4,8.43l-2.09.93H427a67.08,67.08,0,0,0,5.12-9.36l9.21,2.38c-1.58,2.52-3.24,4.9-4.82,7h13.25v7.56H424.84V41.8h22V49h-22v3.81H453.5v7.42H423.91c-.15,1.3-.36,2.52-.58,3.75h28.59v7.7Z" transform="translate(-17.5 -4.82)"/><path class="a9626e3b-0f4b-405e-ae7b-719189e430c4" d="M30.21,46.17c4,6.48,8.49,7.37,11.69,3.62,5-5.86-.55-13.27-6.24-15.4-9.75-3.65-18.16,7.17-18.16,7.17S26.74,40.51,30.21,46.17Z" transform="translate(-17.5 -4.82)"/><path class="f4c8e7a4-8ec3-427b-95d7-53d2a0d45c8b" d="M109.37,23.25c-17.34,10-3,34.49-34.22,40.86l33.39,16.34C115.38,92.18,134,93,134,93s4.76-14,.93-24.2a29,29,0,0,0,17.55-6.36s-5.75-20.62-23.61-20.77c17.55-7.23,20.66-22,20.66-22S133.85,9.1,109.37,23.25Z" transform="translate(-17.5 -4.82)"/><path class="a647705b-2571-4a88-89a5-9d4a8b6cb5b1" d="M93.41,139.82H61.18c0-2.67,18.85-3.09,19.75-21.23C83.82,138.78,93.41,137.15,93.41,139.82Z" transform="translate(-17.5 -4.82)"/><path class="effff137-184c-45c6-9555-1674a7cf0faa" d="M124.17,69.08c0,26-21.15,52.51-47.23,52.51S29.7,95,29.7,69.08c0-17.31,37.34-5.26,47.24-5.26C103,63.82,124.17,43.13,124.17,69.08Z" transform="translate(-17.5 -4.82)"/><path class="effff137-184c-45c6-9555-1674a7cf0faa" d="M94.85,111.06c0,5.25-7.34,16.45-13.9,16.45s-14-7.61-14-12.87S94.85,108.48,94.85,111.06Z" transform="translate(-17.5 -4.82)"/><path class="f4c8e7a4-8ec3-427b-95d7-53d2a0d45c8b" d="M27.61,59.6c0,6.59,1.46,26.32,1.46,26.32l6.1-7.58L42.34,87l1.51-12,11.09,8-2-11.71,13.31,1.38-6.11-7.18,9.21-6.13s-11.17,2.43-11-4.44,5.83-26.78-1.18-29.59C44.25,20.07,27.61,31,27.61,59.6Z" transform="translate(-17.5 -4.82)"/><ellipse class="a17000cd-b0e9-4b55-9d7f-38467851e194" cx="10.11" cy="31.83" rx="1.46" ry="0.73"/><circle class="a17000cd-b0e9-4b55-9d7f-38467851e194" cx="21.46" cy="33.02" r="3.38"/><path class="b0dfb537-9701-4fc9-b43b-e6216649b4a9" d="M30.51,53.32c0,7.15-4.68,2-4.68,2-1.46,0-8.07,4.85-5.86-3.27,3-10.89,14.15-18.08,14.15-18.08S30.49,40.39,30.51,53.32Z" transform="translate(-17.5 -4.82)"/><path class="b0dfb537-9701-4fc9-b43b-e6216649b4a9" d="M59.88,24.2a15.32,15.32,0,0,0,0-2.79c-.52-5.69,7.74-7.88,6.74-10.82-1.3-3.8-11.94-1.45-17,6.92a13.47,13.47,0,0,0-1.42,3.29,16.18,16.18,0,0,0-.93-2.61c-2.38-5.2,5-9.9,2.77-12.43C47,2.42,38.23,8.31,36.18,17.9A13.5,13.5,0,0,0,36.34,24c-.2-.17-.37-.35-.6-.52-3.77-2.92.07-9.1-2.76-10.25-4-1.63-7.7,6.42-5.5,14.28,1.29,4.59,6.21,9.21,10.39,5.39a20,20,0,0,1,6.34-3.5,10.55,10.55,0,0,1,7.26,1.32c2.07,1.44,3.59,4,6.61,4.07C70.87,35.28,77.94,22.82,73.19,20,70.29,18.3,66.64,22.76,59.88,24.2Z" transform="translate(-17.5 -4.82)"/><path class="f4c8e7a4-8ec3-427b-95d7-53d2a0d45c8b" d="M108.73,99c-2-4.85-7.85-7.65-7.85-7.65,6-3.19,9.63-10,9.63-10-3.17-1.38-15.38-2.27-15.38-2.27a37.73,37.73,0,0,0,5-6.52s-13.91-3.49-25.63,3c-15.25,8.48-10.83,28.81,6.6,31.16C100,109.31,108.73,99,108.73,99Z" transform="translate(-17.5 -4.82)"/><path class="fc2dcdb5-2e76-425c-b56a-837394af4424" d="M193.83,116.79h0l5.68-5.61H202L195.83,117l6.57,6.91h-2.56l-6-6.59h0v6.59h-1.78V111.18h1.78Z" transform="translate(-17.5 -4.82)"/><path class="fc2dcdb5-2e76-425c-b56a-837394af4424" d="M209.74,123.92c0-.21,0-.46-.05-.73s0-.49,0-.67h0a2.8,2.8,0,0,1-1.09,1.16,3.12,3.12,0,0,1-1.7.48,3.48,3.48,0,0,1-1.43-.27,2.66,2.66,0,0,1-1-.75,3.08,3.08,0,0,1-.57-1.11,4.54,4.54,0,0,1-.19-1.35v-5.29h1.69v4.72a6.3,6.3,0,0,0,.08,1,2.21,2.21,0,0,0,.3.84,1.64,1.64,0,0,0,.59.58,2,2,0,0,0,1,.21A2,2,0,0,0,209,122a3.11,3.11,0,0,0,.63-2v-4.54h1.69v6.7c0,.22,0,.52,0,.88s0,.68.05,1Z" transform="translate(-17.5 -4.82)"/><path class="fc2dcdb5-2e76-425c-b56a-837394af4424" d="M216.19,115.39c0,.22,0,.46.05.73s0,.49,0,.67h.05a2.65,2.65,0,0,1,.44-.63,3.28,3.28,0,0,1,.64-.53,3.52,3.52,0,0,1,.79-.35,3.37,3.37,0,0,1,.9-.12,3.44,3.44,0,0,1,1.43.27,3.09,3.09,0,0,1,1,.75,3.13,3.13,0,0,1,.58,1.1,4.54,4.54,0,0,1,.19,1.35v5.29h-1.69v-4.73a6.2,6.2,0,0,0-.08-1,2.64,2.64,0,0,0-.3-.83,1.64,1.64,0,0,0-.59-.58,2.23,2.23,0,0,0-2.62.55,3.07,3.07,0,0,0-.64,2v4.53h-1.69v-6.69c0-.23,0-.53,0-.89s0-.67-.06-1Z" transform="translate(-17.5 -4.82)"/><path class="fc2dcdb5-2e76-425c-b56a-837394af4424" d="M227.31,119.1h.05l3.58-3.71h2.27l-4,3.87,4.34,4.66h-2.35l-3.85-4.43h-.05v4.43h-1.69V110.31h1.69Z" transform="translate(-17.5 -4.82)"/><path class="fc2dcdb5-2e76-425c-b56a-837394af4424" d="M241.31,123.92c0-.21,0-.46-.05-.73s0-.49,0-.67h0a2.77,2.77,0,0,1-1.08,1.16,3.15,3.15,0,0,1-1.71.48,3.51,3.51,0,0,1-1.43-.27,2.66,2.66,0,0,1-1-.75,3.25,3.25,0,0,1-.57-1.11,4.54,4.54,0,0,1-.19-1.35v-5.29h1.69v4.72a6.3,6.3,0,0,0,.08,1,2.39,2.39,0,0,0,.3.84,1.64,1.64,0,0,0,.59.58,2,2,0,0,0,1,.21,2,2,0,0,0,1.66-.76,3.11,3.11,0,0,0,.63-2v-4.54h1.69v6.7c0,.22,0,.52,0,.88s0,.68,0,1Z" transform="translate(-17.5 -4.82)"/><path class="fc2dcdb5-2e76-425c-b56a-837394af4424" d="M247.76,115.39c0,.22,0,.46.05.73s0,.49,0,.67h0a2.65,2.65,0,0,1,.44-.63,3.28,3.28,0,0,1,.64-.53,3.52,3.52,0,0,1,.79-.35,3.37,3.37,0,0,1,.9-.12,3.44,3.44,0,0,1,1.43.27,3.09,3.09,0,0,1,1,.75,3,3,0,0,1,.58,1.1,4.54,4.54,0,0,1,.19,1.35v5.29h-1.69v-4.73a6.2,6.2,0,0,0-.08-1,2.64,2.64,0,0,0-.3-.83,1.64,1.64,0,0,0-.59-.58,2.23,2.23,0,0,0-2.62.55,3.07,3.07,0,0,0-.64,2v4.53h-1.69v-6.69c0-.23,0-.53,0-.89s0-.67-.06-1Z" transform="translate(-17.5 -4.82)"/><path class="fc2dcdb5-2e76-425c-b56a-837394af4424" d="M257.75,126.32h-1.44l1.24-4.5h1.69Z" transform="translate(-17.5 -4.82)"/><path class="fc2dcdb5-2e76-425c-b56a-837394af4424" d="M269.93,122.09h0l2.36-6.7h1.8L270,125.94a7.16,7.16,0,0,1-.47,1,3,3,0,0,1-.6.72,2.33,2.33,0,0,1-.8.46,3.21,3.21,0,0,1-1.09.16l-.54,0a3.75,3.75,0,0,1-.57-.09l.16-1.5a2.58,2.58,0,0,0,.85.15,1.28,1.28,0,0,0,1-.37,3.81,3.81,0,0,0,.59-1.06l.54-1.42-3.65-8.53h1.89Z" transform="translate(-17.5 -4.82)"/><path class="fc2dcdb5-2e76-425c-b56a-837394af4424" d="M284.85,119.64a4.54,4.54,0,0,1-.35,1.82,4.17,4.17,0,0,1-1,1.43,4.29,4.29,0,0,1-1.47.93,5,5,0,0,1-3.63,0,4.22,4.22,0,0,1-2.42-2.36,4.54,4.54,0,0,1-.35-1.82,4.46,4.46,0,0,1,.35-1.81,4.11,4.11,0,0,1,1-1.41,4.24,4.24,0,0,1,1.46-.93,5.16,5.16,0,0,1,3.63,0,4.29,4.29,0,0,1,1.47.93,4,4,0,0,1,1,1.41A4.46,4.46,0,0,1,284.85,119.64Zm-1.76,0a3.5,3.5,0,0,0-.19-1.17,3,3,0,0,0-.55-1,2.71,2.71,0,0,0-.89-.67,2.83,2.83,0,0,0-1.22-.25,2.73,2.73,0,0,0-2.12.92,3,3,0,0,0-.55,1,3.67,3.67,0,0,0,0,2.33,3.19,3.19,0,0,0,.55,1,2.53,2.53,0,0,0,.9.68,2.77,2.77,0,0,0,1.22.25,2.83,2.83,0,0,0,1.22-.25,2.49,2.49,0,0,0,.89-.68,3.19,3.19,0,0,0,.55-1A3.48,3.48,0,0,0,283.09,119.65Z" transform="translate(-17.5 -4.82)"/><path class="fc2dcdb5-2e76-425c-b56a-837394af4424" d="M293.66,123.92a7.18,7.18,0,0,1-.06-.73c0-.27,0-.49,0-.67h0a2.86,2.86,0,0,1-1.09,1.16,3.14,3.14,0,0,1-1.7.48,3.48,3.48,0,0,1-1.43-.27,2.51,2.51,0,0,1-1-.75,3.27,3.27,0,0,1-.58-1.11,4.89,4.89,0,0,1-.19-1.35v-5.29h1.69v4.72a5.28,5.28,0,0,0,.09,1,2.38,2.38,0,0,0,.29.84,1.67,1.67,0,0,0,.6.58,2,2,0,0,0,1,.21,2,2,0,0,0,1.65-.76,3.11,3.11,0,0,0,.63-2v-4.54h1.7v6.7c0,.22,0,.52,0,.88s0,.68.06,1Z" transform="translate(-17.5 -4.82)"/><path class="fc2dcdb5-2e76-425c-b56a-837394af4424" d="M308.83,118.4a1.7,1.7,0,0,0-.58-1.42,2.4,2.4,0,0,0-1.53-.46,3.48,3.48,0,0,0-1.36.28,3.77,3.77,0,0,0-1.07.71l-.9-1.08a4.73,4.73,0,0,1,1.54-.93,5.49,5.49,0,0,1,2-.34,4.28,4.28,0,0,1,1.59.26,3,3,0,0,1,1.11.71,2.92,2.92,0,0,1,.64,1.06,3.79,3.79,0,0,1,.22,1.31v3.73c0,.29,0,.59,0,.91a3.72,3.72,0,0,0,.1.78h-1.53a5.09,5.09,0,0,1-.15-1.22h0a3.33,3.33,0,0,1-1.18,1.06,3.59,3.59,0,0,1-1.68.38,4.48,4.48,0,0,1-1.06-.14,3,3,0,0,1-1-.44,2.32,2.32,0,0,1-.74-.81,2.37,2.37,0,0,1-.3-1.24,2.18,2.18,0,0,1,.52-1.54,3.25,3.25,0,0,1,1.37-.86,7.59,7.59,0,0,1,1.91-.39c.71-.06,1.42-.09,2.14-.09Zm-.41,1.45c-.42,0-.86,0-1.31.06a6.07,6.07,0,0,0-1.22.21,2.27,2.27,0,0,0-.91.49,1.1,1.1,0,0,0-.36.86,1.18,1.18,0,0,0,.15.63,1.27,1.27,0,0,0,.41.42,1.48,1.48,0,0,0,.55.22,2.7,2.7,0,0,0,.63.07,2.32,2.32,0,0,0,1.83-.72,2.55,2.55,0,0,0,.64-1.79v-.45Z" transform="translate(-17.5 -4.82)"/><path class="fc2dcdb5-2e76-425c-b56a-837394af4424" d="M313.71,116.34c0-.36,0-.67-.06-1h1.61c0,.22,0,.47.05.75s0,.51,0,.69h.05a2.93,2.93,0,0,1,1.05-1.21,2.77,2.77,0,0,1,1.56-.46,2.55,2.55,0,0,1,.67.07l-.07,1.56a3.21,3.21,0,0,0-.78-.09,2.33,2.33,0,0,0-1.06.23,2.21,2.21,0,0,0-.75.6,2.6,2.6,0,0,0-.44.88,3.88,3.88,0,0,0-.14,1v4.48h-1.69v-6.69C313.73,117,313.72,116.7,313.71,116.34Z" transform="translate(-17.5 -4.82)"/><path class="fc2dcdb5-2e76-425c-b56a-837394af4424" d="M328.34,119.58v.29a1.42,1.42,0,0,1,0,.29h-6.78a2.5,2.5,0,0,0,.24,1,2.6,2.6,0,0,0,.6.82,3,3,0,0,0,.88.55,3.11,3.11,0,0,0,2.54-.18,3.14,3.14,0,0,0,1-.92l1.19,1a4.19,4.19,0,0,1-1.61,1.34,4.93,4.93,0,0,1-2.06.43,4.8,4.8,0,0,1-1.8-.33,4,4,0,0,1-1.42-.91,4.2,4.2,0,0,1-.94-1.41,4.71,4.71,0,0,1-.34-1.84,4.91,4.91,0,0,1,.33-1.82,4.32,4.32,0,0,1,.93-1.43,4.23,4.23,0,0,1,1.41-.93,4.58,4.58,0,0,1,1.75-.33,4.63,4.63,0,0,1,1.7.3,3.61,3.61,0,0,1,1.3.88,3.9,3.9,0,0,1,.82,1.4A5.34,5.34,0,0,1,328.34,119.58Zm-1.73-.68a3.14,3.14,0,0,0-.17-.94,2.12,2.12,0,0,0-.45-.77,2,2,0,0,0-.74-.51,2.49,2.49,0,0,0-1-.19,2.68,2.68,0,0,0-1,.19,2.51,2.51,0,0,0-.83.51,2.75,2.75,0,0,0-.57.77,2.31,2.31,0,0,0-.26.94Z" transform="translate(-17.5 -4.82)"/><path class="fc2dcdb5-2e76-425c-b56a-837394af4424" d="M340.26,116.78H338v4.43a1.69,1.69,0,0,0,.29,1.1,1.16,1.16,0,0,0,.92.33,2.29,2.29,0,0,0,.5,0,2.34,2.34,0,0,0,.49-.14l.05,1.38a4,4,0,0,1-.68.17,4.67,4.67,0,0,1-.76.07,2.48,2.48,0,0,1-1.85-.67,2.81,2.81,0,0,1-.63-2v-4.62h-1.64v-1.39h1.64v-2.45H338v2.45h2.27Z" transform="translate(-17.5 -4.82)"/><path class="fc2dcdb5-2e76-425c-b56a-837394af4424" d="M351.09,119.64a4.54,4.54,0,0,1-.35,1.82,4.25,4.25,0,0,1-2.44,2.36,5,5,0,0,1-3.63,0,4.22,4.22,0,0,1-2.42-2.36,4.54,4.54,0,0,1-.35-1.82,4.46,4.46,0,0,1,.35-1.81,4.11,4.11,0,0,1,1-1.41,4.24,4.24,0,0,1,1.46-.93,5.16,5.16,0,0,1,3.63,0,4.29,4.29,0,0,1,1.47.93,4.13,4.13,0,0,1,1,1.41A4.46,4.46,0,0,1,351.09,119.64Zm-1.76,0a3.5,3.5,0,0,0-.19-1.17,3,3,0,0,0-.55-1,2.71,2.71,0,0,0-.89-.67,2.83,2.83,0,0,0-1.22-.25,2.77,2.77,0,0,0-1.22.25,2.65,2.65,0,0,0-.9.67,3,3,0,0,0-.55,1,3.67,3.67,0,0,0,0,2.33,3.19,3.19,0,0,0,.55,1,2.44,2.44,0,0,0,.9.68,2.77,2.77,0,0,0,1.22.25,2.83,2.83,0,0,0,1.22-.25,2.49,2.49,0,0,0,.89-.68,3.19,3.19,0,0,0,.55-1A3.48,3.48,0,0,0,349.33,119.65Z" transform="translate(-17.5 -4.82)"/><path class="fc2dcdb5-2e76-425c-b56a-837394af4424" d="M362.52,119.64a4.54,4.54,0,0,1-.35,1.82,4.25,4.25,0,0,1-2.44,2.36,5,5,0,0,1-3.63,0,4.22,4.22,0,0,1-2.42-2.36,4.54,4.54,0,0,1-.35-1.82,4.46,4.46,0,0,1,.35-1.81,4.11,4.11,0,0,1,1-1.41,4.24,4.24,0,0,1,1.46-.93,5.16,5.16,0,0,1,3.63,0,4.29,4.29,0,0,1,1.47.93,4.13,4.13,0,0,1,1,1.41A4.46,4.46,0,0,1,362.52,119.64Zm-1.76,0a3.5,3.5,0,0,0-.19-1.17,3,3,0,0,0-.55-1,2.65,2.65,0,0,0-.9-.67,3.08,3.08,0,0,0-2.43,0,2.65,2.65,0,0,0-.9.67,3,3,0,0,0-.55,1,3.67,3.67,0,0,0,0,2.33,3.19,3.19,0,0,0,.55,1,2.44,2.44,0,0,0,.9.68,3.08,3.08,0,0,0,2.43,0,2.44,2.44,0,0,0,.9-.68,3.19,3.19,0,0,0,.55-1A3.48,3.48,0,0,0,360.76,119.65Z" transform="translate(-17.5 -4.82)"/><path class="fc2dcdb5-2e76-425c-b56a-837394af4424" d="M371.94,122.57v1.35H370.3V110.31H372v6.36h.06a3.4,3.4,0,0,1,1.2-1.07,3.54,3.54,0,0,1,1.83-.44,4.24,4.24,0,0,1,1.73.34,4,4,0,0,1,1.35,1,4.26,4.26,0,0,1,.87,1.43,5.31,5.31,0,0,1,0,3.52,4.35,4.35,0,0,1-.86,1.44,3.86,3.86,0,0,1-1.35,1,4.26,4.26,0,0,1-1.78.36,3.9,3.9,0,0,1-1.74-.41,3.29,3.29,0,0,1-1.33-1.18Zm5.67-2.92a3.69,3.69,0,0,0-.18-1.15,3,3,0,0,0-.54-1,2.61,2.61,0,0,0-.89-.68,2.86,2.86,0,0,0-1.24-.25,2.71,2.71,0,0,0-1.18.25,2.75,2.75,0,0,0-.9.68,3.1,3.1,0,0,0-.59,1,3.34,3.34,0,0,0,0,2.33,3,3,0,0,0,.59,1,2.9,2.9,0,0,0,3.32.66,2.64,2.64,0,0,0,.89-.69,2.84,2.84,0,0,0,.54-1A3.78,3.78,0,0,0,377.61,119.65Z" transform="translate(-17.5 -4.82)"/><path class="fc2dcdb5-2e76-425c-b56a-837394af4424" d="M390.14,119.58v.29a2.83,2.83,0,0,1,0,.29h-6.79a2.5,2.5,0,0,0,.24,1,2.62,2.62,0,0,0,.61.82,2.8,2.8,0,0,0,.87.55,2.84,2.84,0,0,0,1.05.19,2.88,2.88,0,0,0,1.5-.37,3.14,3.14,0,0,0,1-.92l1.18,1a4.19,4.19,0,0,1-1.61,1.34,4.9,4.9,0,0,1-2.06.43,4.84,4.84,0,0,1-1.8-.33,4.12,4.12,0,0,1-1.42-.91,4.18,4.18,0,0,1-.93-1.41,5,5,0,0,1,0-3.66,4,4,0,0,1,.93-1.43,4.09,4.09,0,0,1,1.4-.93,4.91,4.91,0,0,1,3.46,0,3.69,3.69,0,0,1,1.3.88,4.21,4.21,0,0,1,.82,1.4A5.59,5.59,0,0,1,390.14,119.58Zm-1.73-.68a3.14,3.14,0,0,0-.17-.94,2.44,2.44,0,0,0-.45-.77,2,2,0,0,0-.74-.51,2.86,2.86,0,0,0-2.05,0,2.41,2.41,0,0,0-.83.51,2.6,2.6,0,0,0-.58.77,2.31,2.31,0,0,0-.26.94Z" transform="translate(-17.5 -4.82)"/><path class="fc2dcdb5-2e76-425c-b56a-837394af4424" d="M398.13,118.4a1.73,1.73,0,0,0-.58-1.42,2.4,2.4,0,0,0-1.53-.46,3.48,3.48,0,0,0-1.36.28,3.77,3.77,0,0,0-1.07.71l-.9-1.08a4.63,4.63,0,0,1,1.54-.93,5.48,5.48,0,0,1,1.95-.34,4.33,4.33,0,0,1,1.6.26,3,3,0,0,1,1.1.71,2.81,2.81,0,0,1,.65,1.06,4,4,0,0,1,.22,1.31v3.73c0,.29,0,.59,0,.91a4.53,4.53,0,0,0,.1.78h-1.53a5.64,5.64,0,0,1-.14-1.22h-.05a3.41,3.41,0,0,1-1.18,1.06,3.6,3.6,0,0,1-1.69.38,4.47,4.47,0,0,1-1-.14,2.91,2.91,0,0,1-1-.44,2.44,2.44,0,0,1-.75-.81,2.47,2.47,0,0,1-.29-1.24,2.18,2.18,0,0,1,.52-1.54,3.19,3.19,0,0,1,1.37-.86,7.6,7.6,0,0,1,1.9-.39c.71-.06,1.43-.09,2.15-.09Zm-.42,1.45c-.42,0-.85,0-1.3.06a6.3,6.3,0,0,0-1.23.21,2.34,2.34,0,0,0-.91.49,1.1,1.1,0,0,0-.35.86,1.18,1.18,0,0,0,.15.63,1.24,1.24,0,0,0,.4.42,1.6,1.6,0,0,0,.56.22,2.59,2.59,0,0,0,.63.07,2.33,2.33,0,0,0,1.83-.72,2.6,2.6,0,0,0,.64-1.79v-.45Z" transform="translate(-17.5 -4.82)"/><path class="fc2dcdb5-2e76-425c-b56a-837394af4424" d="M409,123.92a7.18,7.18,0,0,1-.06-.73c0-.27,0-.49,0-.67h0a2.86,2.86,0,0,1-1.09,1.16,3.14,3.14,0,0,1-1.7.48,3.44,3.44,0,0,1-1.43-.27,2.51,2.51,0,0,1-1-.75,3.27,3.27,0,0,1-.58-1.11,4.54,4.54,0,0,1-.19-1.35v-5.29h1.69v4.72a6.3,6.3,0,0,0,.08,1,2.61,2.61,0,0,0,.3.84,1.72,1.72,0,0,0,.59.58,2.24,2.24,0,0,0,2.63-.55,3.11,3.11,0,0,0,.63-2v-4.54h1.69v6.7c0,.22,0,.52,0,.88s0,.68.06,1Z" transform="translate(-17.5 -4.82)"/><path class="fc2dcdb5-2e76-425c-b56a-837394af4424" d="M418.12,116.78h-2.26v4.43a1.69,1.69,0,0,0,.28,1.1,1.17,1.17,0,0,0,.92.33,2.32,2.32,0,0,0,.51,0,2.09,2.09,0,0,0,.48-.14l.06,1.38a4.22,4.22,0,0,1-.68.17,4.67,4.67,0,0,1-.76.07,2.46,2.46,0,0,1-1.85-.67,2.81,2.81,0,0,1-.64-2v-4.62h-1.64v-1.39h1.64v-2.45h1.68v2.45h2.26Z" transform="translate(-17.5 -4.82)"/><path class="fc2dcdb5-2e76-425c-b56a-837394af4424" d="M422.3,112.31a1,1,0,0,1-.33.78,1.15,1.15,0,0,1-.79.3,1.08,1.08,0,0,1-.79-.31,1.1,1.1,0,0,1,0-1.55,1.09,1.09,0,0,1,.79-.32,1.12,1.12,0,0,1,.79.32A1,1,0,0,1,422.3,112.31ZM422,123.92h-1.69v-8.53H422Z" transform="translate(-17.5 -4.82)"/><path class="fc2dcdb5-2e76-425c-b56a-837394af4424" d="M429.45,116.78h-2v7.14h-1.7v-7.14h-1.69v-1.39h1.69v-1.78a5.16,5.16,0,0,1,.18-1.4,2.92,2.92,0,0,1,.55-1.1,2.63,2.63,0,0,1,1-.74,3.61,3.61,0,0,1,1.47-.27,4.13,4.13,0,0,1,1.06.12l-.2,1.46-.39-.09a3,3,0,0,0-.45,0,1.46,1.46,0,0,0-.78.17,1.08,1.08,0,0,0-.46.46,1.92,1.92,0,0,0-.22.65,4.82,4.82,0,0,0,0,.77v1.78h2Z" transform="translate(-17.5 -4.82)"/><path class="fc2dcdb5-2e76-425c-b56a-837394af4424" d="M437.47,123.92c0-.21,0-.46-.05-.73s0-.49,0-.67h0a2.86,2.86,0,0,1-1.09,1.16,3.14,3.14,0,0,1-1.7.48,3.44,3.44,0,0,1-1.43-.27,2.62,2.62,0,0,1-1-.75,3.43,3.43,0,0,1-.57-1.11,4.54,4.54,0,0,1-.19-1.35v-5.29h1.69v4.72a6.3,6.3,0,0,0,.08,1,2.61,2.61,0,0,0,.3.84,1.64,1.64,0,0,0,.59.58,2.24,2.24,0,0,0,2.63-.55,3.11,3.11,0,0,0,.63-2v-4.54H439v6.7c0,.22,0,.52,0,.88s0,.68.06,1Z" transform="translate(-17.5 -4.82)"/><path class="fc2dcdb5-2e76-425c-b56a-837394af4424" d="M444.12,123.92h-1.7V110.31h1.7Z" transform="translate(-17.5 -4.82)"/><path class="fc2dcdb5-2e76-425c-b56a-837394af4424" d="M449.61,122.84a1.18,1.18,0,0,1-.35.83,1.12,1.12,0,0,1-.86.36,1.19,1.19,0,0,1-.86-.35,1.14,1.14,0,0,1-.35-.82,1.18,1.18,0,0,1,.35-.84,1.15,1.15,0,0,1,.86-.35,1.18,1.18,0,0,1,.86.34A1.14,1.14,0,0,1,449.61,122.84Z" transform="translate(-17.5 -4.82)"/></svg>